<svg width="307" height="309" viewBox="0 0 307 309" fill="none" xmlns="http://www.w3.org/2000/svg">
<path d="M99.4558 14H207.32C210.797 14 214.025 15.806 215.844 18.7695L226.752 36.5469C227.717 38.1204 228.228 39.9303 228.228 41.7764V68.2236C228.228 70.0697 227.717 71.8796 226.752 73.4531L215.844 91.2305C214.025 94.194 210.797 96 207.32 96H99.4558C95.9787 96 92.751 94.194 90.9324 91.2305L80.0242 73.4531C79.0587 71.8796 78.5476 70.0697 78.5476 68.2236V41.7764C78.5476 39.9303 79.0587 38.1204 80.0242 36.5469L90.9324 18.7695C92.751 15.806 95.9787 14 99.4558 14Z" stroke="#627EEA" stroke-width="28"/>
<path d="M99.4558 212.838H207.32C210.797 212.838 214.025 214.644 215.844 217.607L226.752 235.385C227.717 236.958 228.228 238.768 228.228 240.614V267.061C228.228 268.907 227.717 270.717 226.752 272.291L215.844 290.068C214.025 293.032 210.797 294.838 207.32 294.838H99.4558C95.9787 294.838 92.751 293.032 90.9324 290.068L80.0242 272.291C79.0587 270.717 78.5476 268.907 78.5476 267.061V240.614C78.5476 238.768 79.0587 236.958 80.0242 235.385L90.9324 217.607C92.6941 214.736 95.7784 212.951 99.1306 212.843L99.4558 212.838Z" stroke="#627EEA" stroke-width="28"/>
<path d="M292.776 101.188L292.776 207.651C292.776 211.087 291.01 214.283 288.102 216.113L270.178 227.394C268.583 228.397 266.736 228.931 264.852 228.931L238.699 228.931C236.815 228.931 234.968 228.397 233.373 227.394L215.449 216.113C212.541 214.283 210.776 211.087 210.776 207.651L210.776 101.188C210.776 97.7508 212.541 94.5543 215.449 92.7238L233.373 81.4435C234.968 80.4398 236.815 79.9073 238.699 79.9073L264.852 79.9073C266.736 79.9073 268.583 80.4398 270.178 81.4435L288.102 92.7238C291.011 94.5543 292.776 97.7508 292.776 101.188Z" stroke="#627EEA" stroke-width="28"/>
<path d="M96 100.762L96 208.075C96 211.558 94.1875 214.791 91.2158 216.608L73.4609 227.462C71.8906 228.422 70.0857 228.931 68.2451 228.931L41.7549 228.931C39.9143 228.931 38.1094 228.422 36.5391 227.462L18.7842 216.608C15.8125 214.791 14 211.558 14 208.075L14 100.762C14.0001 97.2789 15.8126 94.0473 18.7842 92.2306L36.5391 81.3751C38.1094 80.4151 39.9144 79.9074 41.7549 79.9073L68.2451 79.9073L68.5898 79.9132C70.3104 79.9726 71.9888 80.4751 73.4609 81.3751L91.2158 92.2306C94.1874 94.0473 95.9999 97.2789 96 100.762Z" stroke="#627EEA" stroke-width="28"/>
</svg>
